# xmcd CD database file
#
# Track frame offsets:
#	150
#	74736
#	149830
#	224107
#
# Disc length: 4048 seconds
#
# Revision: 1
# Processed by: cddbd v1.4PL0 Copyright (c) Steve Scherf et al.
# Submitted via: CDex 1.50Beta7
#
DISCID=4f0fce04
DTITLE=MAX ROACH and ARCHIE SHEPP - FORCE
DYEAR=1900
DGENRE=Jazz
TTITLE0=Sweet Mao_Preparation
TTITLE1=Sweet Mao_March
TTITLE2=Sweet Mao_Commencement
TTITLE3=South Africa 76
EXTD=
EXTT0=
EXTT1=
EXTT2=
EXTT3=
PLAYORDER=
